<svg class="" fill="none" height="20" preserveaspectratio="xMidYMid meet" viewbox="0 0 37 20" width="37" xmlns="http://www.w3.org/2000/svg">
<path clip-rule="evenodd" d="M5 0H36.6569L31.6569 20H0L5 0Z" fill="#843CFF" fill-rule="evenodd"></path>
<path d="M24.8676 9.2229H24.3471V7.09678H24.8676C25.1443 7.09565 25.415 7.17736 25.6448 7.33139C25.7668 7.42342 25.8633 7.54522 25.9249 7.68511C25.9865 7.82501 26.0112 7.97836 25.9967 8.13053C26.003 8.28177 25.9746 8.43244 25.9136 8.57097C25.8526 8.70951 25.7606 8.8322 25.6448 8.92962C25.4305 9.11948 25.1539 9.22388 24.8676 9.2229ZM24.3471 15.7111V12.0455H25.2929C25.8693 12.045 26.4433 11.9711 27.0011 11.8255C27.5315 11.6752 28.0289 11.4265 28.4674 11.0924C28.9176 10.7653 29.2864 10.3388 29.5451 9.84605C29.8356 9.27735 29.9769 8.64413 29.9556 8.00586C29.9826 7.35042 29.8333 6.69977 29.5231 6.12174C29.2534 5.63311 28.8683 5.21781 28.4014 4.91204C27.9257 4.59823 27.3964 4.37456 26.8398 4.2522C26.2797 4.12176 25.7066 4.05539 25.1316 4.05428H20.0509V15.6525L24.3471 15.7111ZM12.6169 12.5C12.3725 12.5083 12.1313 12.4428 11.9247 12.3121C11.7181 12.1813 11.5556 11.9913 11.4586 11.7669C11.191 11.181 11.063 10.5411 11.0847 9.89737C11.0604 9.25582 11.1885 8.61766 11.4586 8.03522C11.5636 7.8183 11.7277 7.63534 11.9319 7.50733C12.1361 7.37933 12.3722 7.31148 12.6132 7.31148C12.8543 7.31148 13.0904 7.37933 13.2946 7.50733C13.4989 7.63534 13.6629 7.8183 13.7679 8.03522C14.038 8.61766 14.1661 9.25582 14.1418 9.89737C14.1635 10.5411 14.0355 11.181 13.7679 11.7669C13.6713 11.9901 13.51 12.1793 13.3049 12.31C13.0997 12.4406 12.8601 12.5068 12.6169 12.5V12.5ZM12.6169 16.0337C13.4609 16.0452 14.2994 15.896 15.0876 15.5939C15.7954 15.3179 16.4355 14.8928 16.9644 14.3475C17.4903 13.7918 17.8948 13.1326 18.1521 12.412C18.433 11.5987 18.5719 10.7431 18.5627 9.88269C18.5745 9.02448 18.4355 8.17085 18.1521 7.3607C17.8965 6.64149 17.4917 5.98447 16.9644 5.43259C16.434 4.89624 15.7937 4.48105 15.0876 4.21555C13.4893 3.64857 11.7446 3.64857 10.1462 4.21555C9.4322 4.47629 8.78598 4.8944 8.25549 5.43885C7.725 5.9833 7.32383 6.64012 7.08173 7.3607C6.79294 8.16966 6.65141 9.02382 6.66384 9.88269C6.6535 10.7438 6.79496 11.6 7.08173 12.412C7.33368 13.1335 7.73601 13.7932 8.26208 14.3475C8.79372 14.893 9.43624 15.318 10.1462 15.5939C10.9341 15.8972 11.7728 16.0465 12.6169 16.0337V16.0337Z" fill="white"></path>
</svg>