<svg class="" fill="none" height="20" viewbox="0 0 18 20" width="18" xmlns="http://www.w3.org/2000/svg">
<path d="M8.99423 0L18 5V15H17.9885L13.6703 19.1667V17.3556L8.99423 20L4.3297 17.3556V19.1667L0 15V5L8.99423 0Z" fill="#FAB519"></path>
<path d="M9.30587 4.33327C9.75123 4.32984 10.1935 4.40518 10.6106 4.55551C10.9825 4.68289 11.3269 4.87498 11.6266 5.12219C11.9003 5.35525 12.1171 5.64361 12.2616 5.96664C12.4134 6.29087 12.4845 6.64466 12.4694 6.99997C12.4923 7.49589 12.3329 7.98371 12.0192 8.37773C11.7011 8.7322 11.3073 9.01645 10.8646 9.21107C11.3995 9.34138 11.8682 9.65171 12.1859 10.0858C12.5035 10.52 12.6492 11.0492 12.5965 11.5777C12.596 12.0472 12.4855 12.5106 12.2732 12.9333C12.0844 13.311 11.8126 13.6447 11.4765 13.9111C11.1319 14.1731 10.7407 14.3726 10.3219 14.5C9.87333 14.6341 9.40611 14.7015 8.93639 14.7C8.46307 14.7115 7.99107 14.6477 7.53939 14.5111C7.16179 14.3965 6.80946 14.2157 6.50023 13.9778C6.20336 13.7325 5.95327 13.4392 5.76128 13.1111C5.54628 12.7602 5.37203 12.3875 5.2417 12L6.92742 11.3555C6.97547 11.5209 7.04123 11.681 7.12368 11.8333C7.2048 12.0098 7.30546 12.1775 7.42388 12.3333C7.52522 12.4839 7.64981 12.6188 7.79336 12.7333C7.93658 12.8585 8.10045 12.9599 8.27827 13.0333C8.47694 13.1217 8.69461 13.1636 8.91335 13.1555C9.18416 13.1583 9.45352 13.117 9.71001 13.0333C9.91698 12.9541 10.1083 12.8413 10.2758 12.7C10.4219 12.5659 10.5361 12.4029 10.6106 12.2222C10.6887 12.0506 10.728 11.8651 10.726 11.6778C10.7276 11.4612 10.7044 11.245 10.6567 11.0333C10.6035 10.8392 10.4909 10.665 10.3335 10.5333C10.1212 10.3737 9.87141 10.2668 9.60607 10.2222C9.18151 10.1327 8.74748 10.0916 8.31294 10.0999V8.76666C8.70101 8.7737 9.08858 8.73636 9.46753 8.65551C9.71673 8.60043 9.95214 8.49852 10.1602 8.35556C10.3192 8.23932 10.4397 8.08098 10.5067 7.89996C10.5775 7.71504 10.6127 7.51923 10.6106 7.32216C10.6291 7.13453 10.6056 6.9453 10.5419 6.76708C10.4782 6.58887 10.3756 6.42579 10.2411 6.28884C9.94774 6.04425 9.56622 5.92053 9.17888 5.9444C8.81095 5.92968 8.44869 6.03545 8.15128 6.24442C7.88307 6.44295 7.68215 6.71366 7.57399 7.02221C7.5051 7.22877 7.45487 7.44068 7.42388 7.65555L6.52334 7.49998L5.62273 7.34441C5.72182 6.4917 6.15876 5.70864 6.84265 5.15813C7.52653 4.60762 8.40467 4.33209 9.29431 4.38888L9.30587 4.33327Z" fill="white"></path>
</svg>