<svg class="" fill="none" height="20" viewbox="0 0 18 20" width="18" xmlns="http://www.w3.org/2000/svg">
<path d="M8.99423 0L18 5V15H17.9885L13.6703 19.1667V17.3556L8.99423 20L4.3297 17.3556V19.1667L0 15V5L8.99423 0Z" fill="#F97C49"></path>
<path d="M9.21353 4.31112C9.66639 4.30796 10.1162 4.38325 10.5413 4.53336C10.9243 4.65533 11.275 4.85627 11.5689 5.12221C11.8601 5.37642 12.0922 5.68689 12.2501 6.03333C12.4154 6.40535 12.498 6.80654 12.4926 7.21111C12.4816 7.55324 12.4114 7.89124 12.2848 8.21113C12.1623 8.5377 12.0035 8.85058 11.8114 9.14443C11.6099 9.44201 11.3902 9.72773 11.1533 10C10.907 10.2667 10.6529 10.5333 10.3912 10.8L8.24372 12.8777C8.42155 12.8329 8.6031 12.8032 8.78634 12.7889H9.27132H12.5965V14.4667H5.38037V13.3556L8.84413 10.0223C9.30618 9.59176 9.72373 9.11915 10.091 8.61112C10.3966 8.19142 10.5581 7.69026 10.5529 7.17781C10.565 6.98715 10.5363 6.79611 10.4688 6.61649C10.4013 6.43687 10.2963 6.27247 10.1603 6.13336C9.86274 5.88716 9.47853 5.75993 9.08655 5.7778C8.72446 5.76903 8.37147 5.88751 8.09362 6.11112C7.83695 6.31318 7.64155 6.578 7.52788 6.87779C7.49386 6.97515 7.47064 7.07574 7.45861 7.17781C7.44618 7.29974 7.44618 7.4225 7.45861 7.54443L5.63435 7.24447C5.72802 6.38172 6.1619 5.58638 6.84665 5.02225C7.52909 4.53396 8.36363 4.28321 9.21353 4.31112V4.31112Z" fill="white"></path>
</svg>