<svg class="" fill="none" height="20" viewbox="0 0 18 20" width="18" xmlns="http://www.w3.org/2000/svg">
<path d="M8.99423 0L18 5V15H17.9885L13.6703 19.1667V17.3556L8.99423 20L4.3297 17.3556V19.1667L0 15V5L8.99423 0Z" fill="#00B480"></path>
<path d="M10.9925 10.4778H12.2972V12H10.9925V14.4111H9.29534V12.0333H4.3999V10.5444C5.19657 9.53332 6.00473 8.49996 6.80139 7.46663L9.19146 4.37778H10.9925V10.4778ZM9.29534 7.41109C9.29534 7.41109 9.29534 7.24444 9.29534 7.07777C9.29534 6.9111 9.29534 6.75553 9.29534 6.57776L6.24721 10.5111H9.26067L9.29534 7.41109Z" fill="white"></path>
</svg>