<svg class="" fill="none" height="20" viewbox="0 0 18 20" width="18" xmlns="http://www.w3.org/2000/svg">
<path d="M8.99423 0L18 5V15H17.9885L13.6703 19.1667V17.3556L8.99423 20L4.3297 17.3556V19.1667L0 15V5L8.99423 0Z" fill="#2793CF"></path>
<path d="M12.1691 6.11111H8.2782L7.93191 8.06668C8.13341 8.02511 8.33793 7.99909 8.54373 7.98889H9.12102C9.62163 7.97826 10.1196 8.06125 10.5874 8.2333C10.9849 8.3673 11.3459 8.58574 11.6437 8.87234C11.9415 9.15894 12.1685 9.50633 12.3077 9.88885C12.4578 10.2799 12.5322 10.6942 12.5271 11.1111C12.5369 11.615 12.4345 12.1151 12.2269 12.5778C12.033 12.9968 11.7544 13.3746 11.4072 13.6889C11.0452 14.0092 10.6215 14.2582 10.1602 14.4222C9.66381 14.5932 9.1403 14.6798 8.61307 14.6778C8.2984 14.6787 7.98457 14.6452 7.67779 14.5778C7.39265 14.5141 7.11436 14.4248 6.84652 14.3111C6.58596 14.2053 6.33492 14.0789 6.09601 13.9333C5.88239 13.7987 5.68146 13.6463 5.49561 13.4778L6.46556 12.1222L6.99662 12.5222L7.4007 12.7555L7.95488 12.9778C8.20014 13.0576 8.45813 13.0952 8.71695 13.0889C8.98494 13.105 9.25346 13.0658 9.50438 12.9738C9.7553 12.8818 9.98282 12.7392 10.1717 12.5555C10.5171 12.1671 10.6948 11.6661 10.6683 11.1555C10.6807 10.9255 10.644 10.6955 10.5606 10.4795C10.4772 10.2636 10.3488 10.0664 10.1833 9.89997C9.98666 9.74018 9.75848 9.62043 9.51242 9.54787C9.26635 9.4753 9.00752 9.45141 8.75162 9.47774C8.49141 9.49763 8.23289 9.5348 7.97799 9.58889C7.72577 9.63336 7.47837 9.70031 7.23904 9.78889L6.08446 9.45557C6.5232 6.96668 6.80029 5.30001 6.93884 4.45557H12.1807L12.1691 6.11111Z" fill="white"></path>
</svg>